<svg xmlns="http://www.w3.org/2000/svg" width="75.469" height="36.377" viewBox="0 0 75.469 36.377"><g id="sylo_hover" transform="translate(0 -0.825)"><path id="Fill_1" data-name="Fill 1" d="M1.173,19.95A2.45,2.45,0,0,1,0,17.844,2.383,2.383,0,0,1,2.34,15.417h.088a2.359,2.359,0,0,1,1.214.317,11.417,11.417,0,0,0,5.867,1.944c1.793,0,2.589-.648,2.589-1.618v-.069c0-1.334-2.1-1.793-4.491-2.509-3.034-.891-6.474-2.3-6.474-6.515V6.88C1.131,2.468,4.693,0,9.07,0A15.239,15.239,0,0,1,15.78,1.651a2.5,2.5,0,0,1,1.456,2.3,2.419,2.419,0,0,1-2.412,2.427h-.056A2.24,2.24,0,0,1,13.636,6.1,11.77,11.77,0,0,0,8.942,4.724c-1.508,0-2.277.658-2.277,1.508v.082c0,1.214,2.064,1.793,4.41,2.589,3.034,1.024,6.556,2.468,6.556,6.435v.082c0,4.817-3.6,7-8.3,7a15.109,15.109,0,0,1-8.174-2.468" transform="translate(0 8.591)" fill="#212353"></path><path id="Fill_9" data-name="Fill 9" d="M11.733,23.467a11.733,11.733,0,0,1-8.3-20.03A11.733,11.733,0,1,1,20.029,20.031,11.656,11.656,0,0,1,11.733,23.467Zm0-17.733a6,6,0,1,0,6,6A6,6,0,0,0,11.733,5.734Z" transform="translate(52.003 8.236)" fill="#f75930"></path><path id="Fill_6" data-name="Fill 6" d="M0,3.073a3.073,3.073,0,1,1,6.145,0V26.949a3.073,3.073,0,1,1-6.145,0Z" transform="translate(42.936 0.825)" fill="#212353"></path><path id="Fill_3" data-name="Fill 3" d="M2.538,27.975A2.665,2.665,0,0,1,.594,25.415a2.454,2.454,0,0,1,2.4-2.509h.031a2.921,2.921,0,0,1,1.024.162,4.035,4.035,0,0,0,1.3.244,2,2,0,0,0,2.184-1.3l.2-.487L.323,4.372A4.5,4.5,0,0,1,0,2.955,2.915,2.915,0,0,1,3.035,0,2.98,2.98,0,0,1,5.99,2.3l4.688,12.64L15.2,2.35A3.118,3.118,0,0,1,18.158,0a2.857,2.857,0,0,1,2.914,2.8c0,.011,0,.021,0,.031a4.645,4.645,0,0,1-.285,1.457L13.222,22.473C11.4,26.883,9.58,28.542,5.9,28.542a9.264,9.264,0,0,1-3.36-.567" transform="translate(19.29 8.659)" fill="#212353"></path></g></svg>